# xmcd
#
# Track frame offsets: 
#        150
#        26520
#        46521
#        66450
#        78181
#        98892
#        106126
#        127692
#        146122
#        183350
#        221222
#        243261
#        263448
#        280897
#        313771
#        331696
#        351156
#
# Disc length: 4799 seconds
#
# Revision: 0
# Processed by: cddbd v1.5.2PL0 Copyright (c) Steve Scherf et al.
# Submitted via: ExactAudioCopy v0.99pb4
#
DISCID=ea12bd11
DTITLE=ZIEBOLZ, Burkhard - Riesen and Zwerge (Krimi-7 CD-107 Tracks)
DYEAR=2006
DGENRE=Hörbuch
TTITLE0=075 Riesen and Zwerge-CD 6-01
TTITLE1=076 Riesen and Zwerge-CD 6-02
TTITLE2=077 Riesen and Zwerge-CD 6-03
TTITLE3=078 Riesen and Zwerge-CD 6-04
TTITLE4=079 Riesen and Zwerge-CD 6-05
TTITLE5=080 Riesen and Zwerge-CD 6-06
TTITLE6=081 Riesen and Zwerge-CD 6-07
TTITLE7=082 Riesen and Zwerge-CD 6-08
TTITLE8=083 Riesen and Zwerge-CD 6-09
TTITLE9=084 Riesen and Zwerge-CD 6-10
TTITLE10=085 Riesen and Zwerge-CD 6-11
TTITLE11=086 Riesen and Zwerge-CD 6-12
TTITLE12=087 Riesen and Zwerge-CD 6-13
TTITLE13=088 Riesen and Zwerge-CD 6-14
TTITLE14=089 Riesen and Zwerge-CD 6-15
TTITLE15=090 Riesen and Zwerge-CD 6-16
TTITLE16=091 Riesen and Zwerge-CD 6-17
EXTD=
EXTT0=
EXTT1=
EXTT2=
EXTT3=
EXTT4=
EXTT5=
EXTT6=
EXTT7=
EXTT8=
EXTT9=
EXTT10=
EXTT11=
EXTT12=
EXTT13=
EXTT14=
EXTT15=
EXTT16=
PLAYORDER=
